<svg width="16" height="16" viewBox="0 0 16 16" fill="none" xmlns="http://www.w3.org/2000/svg">
<path d="M11.929 3.80665C11.669 3.54665 11.249 3.54665 10.989 3.80665L7.72898 7.05998L4.46898 3.79998C4.20898 3.53998 3.78898 3.53998 3.52898 3.79998C3.26898 4.05998 3.26898 4.47998 3.52898 4.73998L6.78898 7.99998L3.52898 11.26C3.26898 11.52 3.26898 11.94 3.52898 12.2C3.78898 12.46 4.20898 12.46 4.46898 12.2L7.72898 8.93998L10.989 12.2C11.249 12.46 11.669 12.46 11.929 12.2C12.189 11.94 12.189 11.52 11.929 11.26L8.66898 7.99998L11.929 4.73998C12.1823 4.48665 12.1823 4.05998 11.929 3.80665Z" fill="#949494"/>
</svg>
